<?xml version="1.0" encoding="utf-8"?>
<!-- Generator: Adobe Illustrator 21.0.0, SVG Export Plug-In . SVG Version: 6.00 Build 0)  -->
<svg version="1.1" id="Слой_1" xmlns="http://www.w3.org/2000/svg" xmlns:xlink="http://www.w3.org/1999/xlink" x="0px" y="0px"
	 viewBox="0 0 27.4 45.7" style="enable-background:new 0 0 27.4 45.7;" xml:space="preserve">
<style type="text/css">
	.st0{fill:#3A8244;}
	.st1{fill:#5599DB;}
	.st2{fill:#044FF3;}
</style>
<g>
	<path class="st2" d="M27.4,41.2c0,2.5-2.1,4.6-4.6,4.6H4.6c-2.5,0-4.6-2.1-4.6-4.6V4.6C0,2.1,2.1,0,4.6,0h18.3
		c2.5,0,4.6,2.1,4.6,4.6V41.2z M24,10.3c0-0.6-0.5-1.1-1.1-1.1H4.6c-0.6,0-1.1,0.5-1.1,1.1v25.1c0,0.6,0.5,1.1,1.1,1.1h18.3
		c0.6,0,1.1-0.5,1.1-1.1V10.3z M16.6,4.6h-5.7c-0.3,0-0.6,0.3-0.6,0.6s0.3,0.6,0.6,0.6h5.7c0.3,0,0.6-0.3,0.6-0.6S16.9,4.6,16.6,4.6
		z M13.7,38.3c-1.6,0-2.9,1.3-2.9,2.9s1.3,2.9,2.9,2.9s2.9-1.3,2.9-2.9S15.3,38.3,13.7,38.3z"/>
</g>
</svg>
