<svg xmlns="http://www.w3.org/2000/svg" xmlns:xlink="http://www.w3.org/1999/xlink" width="80" height="68" viewBox="0 0 80 68"><defs><path id="rrrpa" d="M62.61 36.4v-.07h.08v.08zm-.13-1.22l-.07.09v-.09zm-.28 1.69v-.2l.06.1zm-.8 1.6v-.11h.15v.1zm-.16-.06l-.1-.2.1.08zm-.1.33l-.08.13h-.09v-.13H61l.12-.07zm-.23 0v-.12l.06.08v.04zm-.18-.12v.07l-.1.07v-.1l-.09-.17v-.23h.17l.1.08h-.14v.24zm-.33-.47h-.08l.14-.14v-.32h.07v.2l-.08.2zm-.33-1.34v-.08h.05v.07zm-.06.58l-.07.2v-.23l.08-.19zm-.16.08l-.1-.1v-.05zm-.11-1.1l-.07.07h-.07zm-.32-.2h-.08v.12h-.1v-.17l.15-.1h.07zm-.08-.5v.15l-.11-.1h-.1zm-.34.25h-.13l.08-.07h.12zm-.24 1.57l-.07-.2h.14v.21zm-.12-.74l-.1.35h-.1l-.11-.03v.02l-.12-.07-.22-.11-.07.14v.22h.2v.19h.06l.12.07v.12h-.07l.08.1h-.12v.08l.06.07v.1h-.2v.5l.09-.1v-.1h.08v-.2l.08-.17v-.15h.1v.59l-.23.2.1.13-.1.14.12.07v.18h-.63v.4l.01.03-.01.01v.2l-.12-.02v.37l-.2.1-.13.1v-.08l.14-.1V40l-.08-.07h-.08l-.07-.08H57l.05-.1v-.11h-.03v-.3l-.06-.16-.12.22-.16.12.25-.38v-.37l-.12-.12v-.13l.07-.18H57v.2h.07v-.22l.1-.23h-.07l-.17.13-.18-.17.1-.1.12.13.15-.11-.12-.1.12-.1-.08-.08-.1.14h-.09v-.23l.22-.08.23.12v.2l.3.06.06-.2v-.06l.04.14h.23l-.08-.07-.19-.1v-.1l-.22-.06v-.09h.11v-.16l.12-.08.14-.24v-.14h-.11v-.08h-.07v.1l-.1.07v.2l-.07.08-.06-.05-.09.12h-.2v-.1h.1v-.02l.11-.26v-.13l.18-.08v-.37l.13-.25h.1v.1h-.08v.2l.21.18.38.33.32.14v-.18h.01v.02zm-.06-.1h.1v.1h-.1zm-.01-.53h-.08v-.1h.12zm-.13 1.08h-.11v-.11l.02.01h.09zm-.26-.83h.15v.08h-.1v.18l-.08-.1v-.15zm-.21-.69v.28l-.1-.09zm-.14 3.02h.1v-.07h-.06zm-.17-1.1h.01v.04zm.3.78v-.2h-.15l-.07-.18h-.18l.2.23.1.26h.1zm-.5-1.18v-.08l.01-.01.1.07v.02zm.13 1.25h-.1v-.16l-.09.1v.17h.15v.25l.1.08.09-.13v-.28h-.08zm0 2.15h-.07l-.08.09h-.1l.13-.17.19.07zm-.16.36h-.11v-.1h.13zm0-2.34l-.08-.1v.14zm-.12.33l.08-.2h-.15v.35l.07.11.1.07.09-.1-.09-.12zm-.07 1.56v-.2l.08-.08v.3zm-.12-1.75l.07.13v-.13zm-.2 1.04v-.16h.1v.01l-.09.13v.03zm.06.07v-.02H57zm.13 1.38v.07h-.22v.08h-.1v-.1h.1v-.13l.08-.22v-.24l.12-.12v.46h.15l-.1.1zm-.35-.16h-.07v-.33h.07l.06.16h-.06v-.03l-.07.11zm.16-1.28l.05.05v.11l-.1.08zm-.28-.25v.16h-.1v-.08zm0 0l.04-.04-.04.04zm.05-2.42v-.1h-.1v.12zm-.2 3.1v-.13h.1l.06-.13h.12v.22l-.07.13.08.07.22-.22.07.08-.13.07-.1.15h-.18zm.1 1.01h-.09v-.1h.1v.16zm-.17-3.46v.13h.1l.07-.14v-.11l-.06-.07v.1zm.12.64h.16v-.14h.07v.31h-.19l-.07.17-.08-.08zm-.23 2.5v-.1h.12v.1zm.02-2.6l-.1.14v-.15l.08-.14h.13zm-.12-1.82v.15l.1-.1zm.17-.72l-.02.04-.01-.03zm-.02.04l.03.08v.2l.15-.09-.13.15-.07.28h.08v-.18h.13v.22l.14.12.07.26v.25l.09.15-.07.09-.1.13v.13h.06v.23l-.23.2-.2-.23h-.3v-.1h.25l.19-.08v-.2l-.18-.18v-.18l.15-.1-.38-.16v-.1h-.12l-.1-.07-.27-.22-.1-.31-.1.15-.17.1.11.08h.1l.16.27h-.1l-.08-.07h-.1l-.17.09-.09.19h-.07l-.17.1v-.14l-.14-.11v-.15h.14l.2-.18.21-.39h-.04l-.09-.07-.12.09-.14.1.13.16-.27-.07-.2-.52v-.46h-.2l-.13-.07.2-.15.35.01H54.97v-.17h.32v.1h.07l.1-.2-.07-.32.16-.23h.2V34l.17-.08v-.11l.1.07-.12-.4-.11-.24-.16-.55v-.28l-.11-.27-.24-.22-.26-.13h-1.86l-.3.08v.32l.07.39.57 1.61.13.24.56 1.6.08.3.39 1.06.12.22 1.12 3.2.12.26.08.24.21.25.31.1h.53l.3-.12.2-.29.13-.23.08-.3.13-.25.07-.24.12-.29.07-.22.43-1.05.08-.3.24-.54.2-.41h.14l.13.23.08.3.23.48.78 2.16.2.36.08.26.26.3.32.16H62l.33-.11.2-.25.09-.26.12-.25.82-2.46.12-.23.46-1.2.1-.4.12-.25v-.23l.89-2.4.07-.3.13-.26.26-.85-.26-.4-.27-.07h-1.84l-.3.14-.22.3-.07.26-.12.24-.75 2.48v.28l-.18.59-.09.6-.08.25h-.14l-.26-.8-.07-.27-.6-1.59-.13-.54-.33-.28-.16-.57-.11-.23-.1-.25-.2-.28-.28-.16h-.3l-.26.13-.23.28-.46 1.38-.2.5-.5 1.65-.13.2v.3l-.2.53h-.11v-.34L56.05 34l-.05.1h-.16l-.1.08.06.16v.02h.01v.02l-.06.09h-.12v.24h.4l.2.11-.08.13v.26h.1v.1h.06v.08h.08l-.1.26.06.15h-.04l-.08.1h.08zm-.29-1.9l-.02.07-.04-.12zm.14 7.07v-.17h.1v.13zm-.13-3.68v-.1h.11v.12zm.11-1.68h-.13l.08.1zm-.08 3.48h-.1V39h.1zm-.21-2.4h.02l.07.07zm.14.1L56 36.8l.05.03zm.05 1.4h-.14l-.1-.11h.14zm-.22.85v.14h-.07v-.14zm0-4.74v.1l-.06-.07v-.1zm.22 5.9l.06.21-.12-.16v-.41h-.1v-.3l-.17-.15v-.21l.1.23.23-.12.23-.11v-.1h.08v-.05l.17-.08.04.04-.06.07v.12l.08.12h.07v.15l-.17-.06v-.14l-.12-.11-.15.08-.15.14v.26l-.08.07.18.1v.2h.1v.12zm.52-1.21zm0 0l.17.2-.14-.12h-.03zm-.6-3.05v-.2h-.09l-.06.09V36l.12.1zm-.18 2.57h.13v-.17l.07.14.1-.1h.06v.11l.08.17h-.1l-.14-.1v.1h-.17zm.23-2.21l-.14-.08-.08.12.11.1zm.01-1.35l-.16-.2-.1.18h.14zm-.3.55l.07-.2h-.1zm-.1-.57v.13h.07zm-.08 3.29v-.13h.06v-.18l.11-.29.15-.29.08.09h-.07v.41l-.1.15v.28h-.08zm.48-.8v.07H56v-.07zm-.35.99h-.07v-.07h.09zm.08-4.75h-.1v.12l-.07-.09v-.14h.1zm-.13.23v.06h-.07v-.08zm.44 3.03l-.03-.02h.07v.12zm-.03-.02l-.08.17h-.3l-.1-.08v-.14h.26l.1.15v-.2zm-.48-3.79v-.1l.07.13.07.18h-.15l-.07-.14zm-.08 2.02h-.12v.18l.1.18h.09l-.07-.13zm.08-1.3h-.15l-.06-.17zm-.3-.84v-.08h.09v.08zm0-.48v.15l-.08-.14zm-.06 3.06v-.18l-.1-.11zm-.08 2.44v-.18l-.2-.1v-.08h.3l.1-.12h.25v.07l-.18.2v.24zm-.06-4.84h-.08v-.14h.07zm-.13-.72v-.07h.12zm-.12.9h.12l.13.14h-.13l-.06-.08zm.03 2.2v-.1h-.07zm-.07-1.3l.15-.24v-.26l.16.07v.13h-.1v.21zm-.01-2.06h.1v.1h.07v.08h-.23v.1h-.1v-.12l.17-.06zm-.18 3.8v.07h.08l-.07-.1zm.03-1.28v.17h-.15v-.18zm-.08-.1l-.14.16h-.1v-.22l.08-.1v.08h.4l.16-.12.17.22h-.06l-.1.15-.21.11v-.2zm-.22-2.4h.06v.08h-.13zm.06 0h.03-.03zm.03 0l.06-.09v.08zM56 36.78zm-1.18-1.65l-.08.1v.13l.08-.08zm.47.9h.08l.15-.14.23-.07.09-.15v-.13h-.07l-.23.13-.16.16h-.06l-.15-.08-.07.1.1.08h.09zm-1.17-1.66l.12-.12v.22l-.1.1zm.58-1.4l-.16-.07-.07.08v.1h.1v.08h-.12l-.07-.1v-.25h-.2v-.17l.17-.11h.27zm-.2.26l.1.12v.04l-.16-.04v-.2zm.1.16l.11.04h.2l-.09.2-.08.21.14.08v.09l-.14-.11h-.13l.06.1h.18l-.12.09-.08.16h-.08v-.12l-.17-.23.2-.22zm-.4-1.36v.15h-.08v-.12zm-.08.28h.1v.15h-.1zm-.27 1.47h.1v-.38H54l.1.15.06.13.06.2v.14l-.11-.12zm.3-.55l-.07-.1h-.2V33l.25.07zm-.12.81h-.14v-.07h.1zm0-2.08l.09.25-.1.26-.08-.07v-.16l-.1-.17zm-.43.88h-.1v-.22l.14.07zm-.11-.44h-.16l-.07.1h-.27l.1-.21v-.25h.36l.19-.13v.3z"/><path id="rrrpb" d="M76.83 34.14h.1v.08zm-1.37-1.3v.07h-.08zm-.54-.49v.24h-.08V32.47zm-.18-.22h-.02v-.09zm-.18-.17h.1v.08h-.04l-.03-.04h-.02zm.06.08l.06.1.09.2v.01h-.18l-.24.1v-.1h-.07v.28l.13-.06h.16v.09l-.12.08-.09-.08v.15h.14l-.15.09h-.07v.07h-.08v-.07h-.04v.12h-.54l-.11.11-.03-.02v.05l-.04.04-.1.07h-.11l-.13-.07.05-.02h-.13v-.06h-.07l-.03-.03h-.08v.03h-.01v-.08H73v-.14h-.28v-.1h-.08v-.1h-.28l.1.13h-.25l.2-.33v-.15h.16v-.2h.39l.12-.12.11.08v-.15l.49-.21h-.49l-.2.06-.38.1-.5.32-.14.12-.31.22-.27.3-.33.5-.08.17-.2.54-.08.44v1.16l.11.62.15.34v.2l.1.2.47.63.28.27.3.2.68.36.2.08.84.25h.6l.88-.08.37-.13.89-.4.7-.67.12-.18.38-.69.07-.2v-1.27l-.14-.55-.08-.37-.08-.2v-.23l-.18-.34v-.18l-.13-.16-.12-.13-.13-.18-.42-.4-.52-.31-1.3-.41h-.79l.1.13v-.09h.12V32h.39v.04zm.04 1.02v.09zm-.52-.3h.09v-.07zm.03-.81v-.09h-.07v.17zm-.14.16h-.1l.1.1zm-.25.05h-.1v.05h.12zm.35 5.72h-.26v-.08h.22zm-.49-4.99h.33v-.12h-.09v-.04h-.1l.04.04h-.05l-.11-.08zm-.26 4.4v-.12h.2v.1zm.22-4.09h-.12v-.04l.03-.03zm-.04-.86v-.09h-.08v.1zm.14 5.3v-.08h.07v.02l-.08.1zm.07-.08v-.08h.05v.08zm-.08.11l-.02.12v-.09zm-.02.14v-.02zm0 0l-.03.12-.1.12h.1v.11h-.1v-.35zm-.08.55h-.14v-.13h.14zm-.3-5.38h.1v-.17l-.1-.15zm-.06-.35l.1-.1h-.13v.11zm-.22.55h.01v.02h.08l-.19.13-.08-.09v-.12h.12zm-.17-.84l-.1.25.1.1zm-.08 5.14v.08h.08zm.08-3.91v.1h-.08v-.1zm-.07-1.14h-.08v.09zm-.25 1.32v-.09h.11v.09zm3.44 1.9l-.09.4-.1.15-.09.15-.13.18-.26.23-.18.08-.15.08H73.8l-.34-.18-.3-.26-.1-.14-.12-.14-.2-.56v-1.42l.13-.14.08-.17.13-.15.15-.12.29-.2.18-.08h1.14l.52.22.3.24.23.33.08.18v.81zm-3.3 1.8h-.14l-.07-.07v.35h.13l-.13-.1zm-.2-.08h-.02l.01.01zm-.06-.86v-.07l-.08-.12h.13v.14zm0 .05l-.11.14h-.1v-.16h.17l-.02.02h.06v-.02h.01v.02h-.01zm.07 0v.01h-.07v-.01zm.01.01v.11h-.01v-.11zm0 .11h.07v.1h-.01l.01.01v.12h.01v.05h.02v-.05h.05v.05h-.05v.22h.08v-.22l.1-.12h.04l-.12.12.08.11v.09l.08-.09v.48l.14.08h.12v.02l.09-.07h.16v.25l-.27.14-.63.22v-.06l-.15-.2h-.44v-.3l-.13-.1-.08-.2h-.1v-.23l-.18-.08v-.13l-.12-.05v-.16h.3v.09h.23v-.13l-.09-.24.03-.03h-.14v-.08h.13l.15-.11h.2v-.15l.09-.13h.12v.08h-.02v.13l-.07.12.08.13-.11.11v-.01h-.11v.1l-.08.07-.07.14h.58v-.09l.01.02zm0 .04l.06.05-.06-.07zm.1.09v.1h-.02V36.79zm-.18-.3v.03h-.04zm.04-3.54h.1v.08h-.09zm-.2 3.18v-.04l.03-.04v-.09h.1l.08.13v.11zm.08-1.93h-.09v-.1h.11v.12zm-.14 3l.08.09.08-.14zm.04.3h-.08v.35l.1-.15.12-.14h-.1zm-.04-4.1h.26v.15zm1.83-.66l-.02-.03h-.03v.03zm-.13.07l-.06-.06h.06zm.89-.35h.07v.1h-.07zm-2.47 2.66v.09h-.12v-.09zm.07 0v.2h.08v.08h-.1v-.28zm-.14-.64v-.12h.31v.29h-.38zm-.07 1.48v.12l.09-.12zm0-.14h-.1v-.08h.1zm.05-.29v-.08h.16zm-.18-.4h-.09v-.2zm-.09 1.3l-.12.1h.22zm-.14-.94h.02l-.02.07zm.02 1.73h-.15v.06h.13zm-.3-2.28v.13h-.09zm.02.53v.09h-.11zm-.03.34h.1v.08h-.1zm-.15.54v-.05h.04l.01-.02h.08zm0-.05h-.08l-.1-.1.07-.08h.15l.09.08-.08.08h-.05zm-.14-2.66h.07v.09h-.08zM72.63 37v-.03h.03zm-.81-.17h-.09v.1h.09zm-.67-1.34l-.08.1-.03-.03v-.2h.07l.09.07-.04.05zm.1-.01v.08h-.1v-.07l.01-.01z"/><path id="rrrpc" d="M87.64 34.2v-.08h.09zm-1.29-1.38v.07h-.08zm-.54-.44v.2h-.08v-.13zm-.1-.27h-.1v-.08zm-.24-.17h.1v.09h-.1zm0 1.19h.01v.08zm-.43-.38v.08H85v-.04zm0 .08h.1l-.15.08h-.07v.07h-.08v-.07h-.05v.13h-.54l-.18.18-.1.06h-.02l.13-.08h-.43v-.07h-.07l-.01-.02h-.09l.04.02h-.06v-.08h.18v.02h.08v-.16l-.08-.16v.16h-.28v-.1h-.08v-.1h-.2l.32-.17h.02l-.03.07.1.1v-.25l-.06.05v-.01l.01-.04h-.01v-.09h.05l-.04.09h.04v-.09h.12v-.32h.39l.12-.12.11.08v-.15l.23-.08h.27l.1.12v-.08h.13v.2h.4l.13.12v.23l-.46.02-.1.08v.18l.12-.06h.17v.09l-.12.08-.09-.08v.1l-.05.06h.09zm-.28-.69h-.11l.1.1zm-.25.04h-.11v.06h.12zm.35 5.7h-.27v-.08h.22zm-.42-4.96h.32v-.13h-.2l-.04-.03v-.01h-.02l-.05-.04h-.07zm-.33 4.38v-.12h.19v.1zm.22-4.07h-.13v-.1zm-.04-.87v-.08h-.09v.1zm.15 5.3v-.08h.07v.01l-.1.13v.11h-.12l-.09.05zm.07-.08v-.08h.05v.08zm-.3.3l-.03.02-.1.13h.08v.1h-.08v-.19zm-.29.55h-.13v-.13h.13zm.06-5.7l.1-.1h-.47v.1zm-.33.47l-.13-.07h.06zm.2.15l-.09-.08-.1-.05h.08l.12.06h.09zm-.43-.83v.01zm.06-.16v.01zm-.08 5.12v.09h.08zm.08-3.9v.1h-.08v-.1zm0-1.12zm-.06.06l-.01.02h-.01v-.08h.03v.04zm-.19 1.25v-.09h.11v.09zm3.55 1.88l-.08.4-.11.15-.08.16-.13.18-.3.23-.18.09-.16.08h-1.31l-.34-.18-.3-.26-.1-.14-.12-.14-.2-.56v-1.38l.13-.14.08-.16.12-.16.16-.12.29-.2.18-.08h1.14l.66.18.3.24.23.33.08.18v.8zm-3.41 1.8h-.14l-.07-.06v.34h.13l-.13-.1zm-.2-.08h-.02l.01.02zm-.13-.83v-.09l-.08-.12h.2v.14zm0 .04h.06l-.1.12h-.1v-.15h.1l-.02.02h.06v-.02h.08l-.01.02h-.07zm.07 0h-.01v-.01zm.01 0v.13l-.01-.02v-.11zm0 .13v.02zm0 0v-.02h.09v.12l-.03-.03.02.04v.15h.02v-.06h.07v.06h-.07v.22h.08v-.21l.11-.14h.04l-.12.12.08.11v.09l.09-.09.07.12v.36l.13.08h.13v.12h-.11v.07h.04l.15-.14h.17v.25l-.3.03-.5.22v-.05l-.14-.2h-.52v-.12l-.12-.1-.09-.2h-.1v-.23l-.17-.08v-.13l-.13-.05v-.15h.3v.08h.16v-.03h.44v-.15h.21v-.04l.06.05zm.1.1v.1h-.01v-.1zm.08.16l-.01.02v-.02zm-.26-.43v.01H83zm.11-3.55h.1v.08h-.09zm-.2 3.17V36h.13l.08.13v.11zm.08-1.92h-.09v-.11h.11v.12zm-.14 2.98l.08.1.08-.14zm.04.3h-.09v.35l.12-.15.1-.14h-.09zm.07-4.07h.07v.14zm.02-.7l.08.1h-.26zm-.02-.03h.07l-.05.03zm.64.2v.13-.14zm.01.29h.02-.02zm1-.44l-.02-.02h-.03v.02zm-.13.07l-.1-.1h.08l.02.02zm.96-.34h.08v.1h-.08zm-2.53 2.74H83v.11h.08v.09h-.1v-.17zm-.26 0v-.08h.17l.1.08zm.39-.72v-.13h.08v.3h-.37zm-.3 1.59v-.12h.1zm0-.25h-.09v-.09h.1zm0-.3v-.08h.18zm-.17-.4h-.08v-.2zm.08 1.4v-.01zm0 0l-.15.27h-.07l-.08-.24.02-.03v.03l.04-.04h-.03l.1-.1.08-.08h-.2v-.09h.13l.15-.1h.18l-.03.05.08.12-.1.12v-.02h-.12v.1l-.16-.08-.08.08zm-.28 0h.01zm.02-.97v-.08h.01l.08.08v.24zm.1 1.66h-.14v.05h.13zm-.3-2.27v.12h-.08zm.1.53v.08h-.18zm-.1.33h.1v.08h-.1zm-.15.54v-.07h.03l.01.02h.06zm.03-.07l-.08-.08h-.07v-.08h.15l.08.08.06.1h-.07l.03-.02zm-.1-2.63v.09h-.08zm.4 3.24v-.1h.06v.1zm.48-.79v-.1l.04-.07v.1zm.04-.23h.04l-.04.06zm-.04.27h-.03l.03-.04zm-.96-.6v.02h-.07zm0-.09h.1v.08h-.1zm-.15.11l.04-.05v.02zm.04-.05v-.19l.08.09zm6.6-.9l-.08-.36-.09-.2v-.23l-.18-.33v-.18l-.12-.17-.13-.13-.12-.18-.43-.39-.5-.32-1.3-.4H83.9l-.18.08-.38.1-.5.32-.15.13-.3.22-.27.3-.33.5-.08.16-.2.54-.08.43v1.16l.11.62.15.34v.2l.1.19.47.64.28.26.15.18.89.38.2.08.84.25h.6l.88-.08.38-.13.89-.4.69-.67.12-.18.4-.68v-1.46z"/><path id="rrrpd" d="M100.6 36.1V36h.12v.08zm-1.2.6h-.09v-.12h.16zm.05.28h-.1v-.12h.12zm-.22-1.67h-.11l-.06-.01h.11zm-.17-.31h.1l-.08.1h-.12zm-.37.43l.1.12v.1h-.06v-.1l-.16-.08zm-.63-.99h.07l.07.08h-.13zm-.27-.48v-.16l-.08-.1.11-.07h.09v.16l.1.08zm.06-.59v.1l.12-.07-.12.11h-.14v-.3zm-.3 1.21h-.08l.1-.06zm-.03-1.56h.1l-.08.1h-.1zm-.52.27v-.13h.07zm-.27-.12h.03l.07.21h.27v-.08h.1v.15l-.09.06h.07l.17.16.1.24.1.16h-.06v.3h-.1v-.29h-.13v.03h-.1v.08l-.16.1-.14-.12h-.08v.24h.25v.07h-.27l-.2-.15-.29-.08-.45-.2.08-.05.03-.04h-.16v.08h-.05v.17h-.03l-.04.05h.05l-.08.16-.36-.1-.13-.24h-.07v.29l.09.13h.1v.1h-.17l-.07-.06-.1.05.01-.05H95l-.05-.04h-.14l.07-.06h-.14v-.11h-.01v-.13h.15v-.1h-.24l-.07.11h-.23l-.17-.08h-.2l.13-.09h.28l-.25-.18v.1h-.07v-.16l-.17.07-.17.12.12.17h-.2l-.15.09-.02-.2v-.16h-.12v.1h-.21v-.14l.08-.1v-.1l-.1.07-.1-.12.1-.15.09-.07-.06-.06-.12-.21.1-.31.2-.07h.07v.13h.09l.14.02.25-.08.2.14.1-.1h-.12l-.09-.08v-.1l.16.14.11-.12h.67l.25-.08.13.08h.16v.04l.07-.08h.14l.11-.11.25.15.09.17v-.05h.16l.21.37h.13v.05h.12zm-.12-.18l.12.15v.03h-.12zm.11 1.27v-.05h.04v-.05l-.04.03v-.04l-.12.07.13.12zm-.18-.82l-.25-.12v.08l.14.06zm-.27 7.23l.19.1h-.19zm-.1-7.36h-.16v.13h.17zm.19 7.92v.07h-.27v-.07h.12v-.15h.16l.21-.11zm-.27-.21l-.1-.08v-.1h.12zm-.32-6.94v-.04h.05zm.5 6.48h-.15l-.08.1-.14.11v-.13l.14-.16v-.07l.1.1h.14zm-.29-.2h.06v.05zm-.15-7.29h-.11v.13l.07-.09zm-.06 1.15v.04h-.07l.01-.04zm.1 6.03v.13h-.18l-.1-.07.18-.13h.2zm-.12.29l-.07.09h-.1v-.13zm.02-6.97l-.07-.1h-.12v.27zm-.05 7.66l-.13.07-.12-.23.12-.22h.1v.06l-.15.19.08.09h.1zm-.21-.55h-.09v-.1zm3.16-2.63l-.24.5-.52.56-.5.28-.41.12-.61.06h-.7l-.34-.14-.1-.25v-4.13l.13-.31.46-.1h1.02l.56.15.25.12.24.2.2.19.21.23.14.22.13.24.22 1.17zm-3.32 1.6v.12h-.08zm-.16-5.7l.15-.2h-.15zm-.16 6.31h-.08v-.06zm-.05-3.19v.1l-.1.07v-.1zm-.18-3.24l.15.14.1-.08-.1-.11.11-.23-.1-.11h-.2v.09h.12zm-.04 5.45h.12v.19zm.3-1.5l-.18.1h-.18l.13-.18zm-.23-2.64v.26h-.13v-.3zm-.16 1.44h.11l.1-.07.04.29.1.06h-.07v.07l-.07-.07-.04-.18h-.22zm.13-.26v-.07h.08v.08h-.35zm-.13-.68h-.14l.09-.08zm-.05 3.4h-.09v-.1h.23v.14zm-.03 1.47h-.09v.06h.1zm-.06-6.76l.1-.13h-.18l-.08.06.06.1zm0 1.29l-.08.09v-.1l.17-.08.12-.21v.08l-.17.2zm.48 3.88l-.27-.06h-.23v-.17h-.16v-.22l.02.02h.1v-.12h.02v.1l.23.2.16.12zm-.66-.45l-.1-.11.12-.1v-.16l.1.05v.22h-.12zm-.18-2.02h-.06v-.12l.1-.08v.2zm0-.97l.08-.13h.17l-.08.1zm.16 5l.12-.09h.07v-.09h-.2l-.14-.12-.1.07h.13v.35l.09.21h.18l-.14-.14zm-.03-2.79l.04-.01-.03.08v.07h-.08v.11h-.13l-.06.03.06-.1v-.02h.07zm-.21.16zm.08-.17h.14v.01l-.07.02-.1.03zm1.12 1.92h-.12l-.21.17h-.14l-.08-.18.02-.01zm-.55-.01l-.1.05v.2h-.09v.07l-.1-.17v.14l-.07-.07v-.23l-.05-.04.06-.06-.07.06-.1-.07v-.22h-.12V39l-.12-.17.11-.06h.05l.14.06v.3h.16l.1.18.15.15zm-.65-.81h-.05l-.16-.07-.03-.14.07-.16.12.1.1.12v.15l-.02-.02zm-.17-4.22l.08-.1h.11l.06.08h-.14zm.34-.02l.04-.02h.07v.1h-.1v-.08zm-.06.04l-.03-.04h.09zm-.32.24l.1-.07v.12l-.1.08zm-.04 1.31v-.15h.15v.13zm-.14 4.97l.12.07.21-.1h-.25zm.2-1.06h-.08l-.17.08.13.12zm-.04-6.73v-.08h-.15zm-.1 3.12v.1h-.16v-.07zm.24 2.58v.08l-.08.1v.1h-.07v.06h-.21v-.27l.17.07zm-.35 2.3v-.16l-.13.13zm.05-6.14v.08h-.13v-.07h.08v-.08h-.13v-.06h.2zm-.05 1.74l-.02.02-.14-.07v-.14l.14.04.08-.16h.11v.26l.1.07h-.27zm-.07 1.58l.03-.01-.03.05v.12l.16.17-.11.13v-.04l-.14.08-.03.03-.11.13-.11.1-.1.18v.09l-.18-.1v-.17l.08-.12.07-.07v-.1h.1l.06.07.04.03V39l-.14-.13h.07l.1-.1.15-.06h-.16l.06-.09v.01h.1zm-.12-.04h.14l-.02.04-.12.03-.07.1zm.17 2.15v.17l.08.08h.2l-.07-.13v-.12h-.07v.1l-.12-.07v-.19l-.16.08v.17zm.04-7.42v-.02l-.18-.2h-.16l.05.17zm-.22.6l-.09.1h.13zm-.13 7.15h.17v-.16l-.11.1zm.13-3.14l-.13-.1v-.1h.07v.1h.1l.1.11v.12h-.1v-.08zm.13-4.35h-.27v.11h.18v.17h.1l.25-.23.08-.16-.15-.06h-.1v.06l.07.08-.1.08zm-.25-.21v-.18h-.14l.07.1zm-.1 5.18v.03l-.06-.08zm.03-.15l-.08-.08v-.03zm-.08-.1l-.1-.14v-.1h-.1l.06-.07-.08-.12h.1l.12.12zm.09.88l-.17.08v.13zm0-.02h.02l-.01.01zm1.46-4.63h-.12l.12-.06zm-.12 0l-.02.02-.14.07v-.09zm.16.14v.03l-.03-.01zm.11.08l.03-.02-.03.24v-.13l-.11-.1v-.04zm-.11-.11h.04l-.04.03zm1.93-.29l.02-.02v.02zm-.13 0v-.1l-.14-.1-.02-.03-.08.08v.15zm-.16-.23l-.14-.16h-.48v.08h.1l.13.06.13.08.12.13v-.13l-.13-.06v-.1h.13v.1zm.4.07l.16-.06v-.03h-.1l-.08-.09h-.1V34h.11zm.3-.06l.08.03v-.04l.07-.07zm-3.29 4.08l.22-.1v.01l.09.07h-.22l-.14.2v.19l-.16.04zm.32-.33l-.05.1-.06-.07zm.23.2v.16l-.07-.04h-.07v-.12zm.04-.41v-.07l.1-.05.08.08-.09.14-.16.05zm0-.07l-.09.04-.35.29h-.15l-.11-.1v-.12h.07v-.16h-.25v-.13h.17l.18-.18v.17l.14-.1h.15v.1h.14v-.25h.17l-.09-.08v-.08h.3l-.07.24-.21.09zm.48 3.67l-.18.29-.11-.16v.04l-.1.14-.15-.23-.12.09v.14h-.07l-.16-.07-.32.09h-.28l-.26-.2-.24-.12.1-.22v-.31h.11l-.1-.1h-.12l.1-.1.1-.2.08-.09h-.21v-.27h.1v-.08h.08v-.21h.29l-.08-.1v-.1l.13.1v.26h.44v.09l.16-.17.22-.09-.33.27.1.13.07.08v-.08h.1l.1.16h.06l.07-.12h.15v.32l.07.1.18.12h.17v.1h-.17v.15l-.02.13-.14.09v.1h.1v-.15l.19-.16.23-.07v-.07l.11.11V41zm-.57-1.6v.02h-.02zm7.11-2.89l-.2-1.05-.17-.51-.12-.25-.48-.7-.76-.78-.72-.46-.27-.14h-.28l-.23-.1-.3-.07-.83-.12h-3.78l-.3.12-.13.27v8.27l.14.42.28.13h4.04l.42-.12.58-.09.67-.26.95-.6.7-.83.14-.26.16-.21.23-.52.07-.25v-.27l.08-.23v-.96z"/><path id="rrrpe" d="M60.78 58.27v-.12h.15l-.03.11zm-.08-1.22l-.12-.08v.1l.09.14zm-.02-.78l.16.08v.1h-.13v-.12h-.15zm-.04 1.24h.09l-.09-.1zm-.2.34h.12v-.09l-.09-.08zm-.06-4.79l.09.1h-.09l-.08-.12zm-.1 4.53h-.08v.1h.1zm.16-.42v-.08l-.11.13-.13.2.21-.15zm-.18 1.2h-.15l-.1.15h.09l.17-.13.16.1v-.12l.1-.08v.31h-.13v.24h-.13l-.11.14h-.2l-.22.35-.02.03-.15-.1h-.04l.11.21h-.27v.18h-.2v.1l-.14.09v-.17h.1v-.2h.15v-.33l.22-.2h.1v.16l.1-.17-.19-.12h-.23v-.18l-.18.12-.2.13h-.14v.1h.22v.16l-.11.17-.17-.09.16-.16v-.02h-.42l-.08-.1h.12v-.17l.12-.14h-.17l-.36-.12v-.16l.45.03h.12l.06.06h.08v-.06h.03v-.1h.05v-.4h.1v.25h.1v-.33l.1-.12v-.01.05h.1l.1-.1.1-.12h.1v-.1h-.02l-.1.08h-.14l.09-.11h.04v-.14l.07.08v.09h.08l.1-.12v-.32h-.1v-.2h.4l.12.03v-.2l.08.06v.13l.13-.16v-.54h-.33l.09.11-.11.23h-.19v.13h.09l-.09.1h-.17l-.04-.04v.04l-.06-.03v.02h-.39v-.17h.09v-.01l-.22-.24-.01-.04H59v-.01h-.05l-.06-.13.11.1h.1v-.18h.17l.09.11.13-.2v-.24h.33l.1.12.08-.08h.17l.12.13v.08h.08l.18.22v-.12h.08v.16l-.08.1v.27l.21.25h.17v.21h.12l.1.13-.2.16v.1h.15l-.24.11-.09.08v.42h-.12v-.2l-.13.16v.09l-.12-.06-.28-.14.04.05H60l.1.25-.14.2h.12l.22-.15-.12-.13h.35v.23h-.12zm.3-.1l-.03.02v-.02zm-.5-1.7h-.02l-.1-.12.02-.03h.14v.18zm.14 1.94l-.17.21h.23v-.13h.04zm.37-.47h-.04v-.02zm-.53-.33v.06l.09.05zm-.04.76h-.17l.13.1zm-.2-2.6l-.09.09h.25v-.1zm-.04 1.72l.12-.26h-.11l-.09.27zm.11-2.2v.16h-.19zm-.37-2.5v.03h-.13zm-.13 4.24V57l.08.2-.01.01zm.08.09v-.01.03zm0-.13h.08l.03.03-.1.09zm.08 0l-.06-.08v-.13l.11.08h-.02v.13zm0 1.14h.07v-.27l.08-.08h-.08v-.07l-.1-.1v.28h-.16v.3h.16v.03h.03v-.03h.04v.14h.1l.13-.08v-.1h-.14zm-.26-4.67h-.06v-.14zm.04 0v-.11h.1l.09.11zm0 .12l-.04-.12h.04zm-.25 3.83l.07.06-.03.03zm.15-.01v-.16h.2l-.02.03h-.1v.2l-.12.1v-.06l-.04-.04zm-.25.63v.17h.14v-.1zm-.18-1.96h.18v.01h-.03zm-.25-.11l.1-.1v-.19l.08-.18v.57h-.1zm.25 2.28v.04h-.14l-.01-.02zm-.15.02l-.1.02-.12-.1h.07l.12.09.01-.02zm-.15-.07h.2l-.07.06-.05-.06zm-.04-2.94v-.08h.06zm-.07.94h-.1v-.12h.17zm-.17-.3v.18h-.15zm-.15.18l-.06.06h-.02v-.06zm-.06.06h.08v.2h-.11v-.2h.01v.03zm.15-.61h.1v.1l-.08-.08-.09-.12zm1.44 1.34zm-.22-.88h-.09v-.1l-.1.1h.19zm1.12.94l.12-.08-.12-.1zm-.92-.26v-.1h.02v.1zm-.18-.2l-.02-.01h-.04l.04.03zm-.67 1.69h.1v.04h-.14zm.22 1.34h.1v.08zm.44-.2h.13v-.13h-.02v-.1l-.11.22zm.37-.01l-.08.12-.02-.03.08-.1zm-1.51.13h-.12l-.14-.1v-.07h.47zm-.49.2h-.1v-.08h.14v.27zm.04-.71v.17h-.08v.11l-.23-.17zm-.54.44h.09l.14-.1-.13.1v.09zm.1.09l.22.19h-.09l-.13-.17zm-.14-1.26v-.08l.21.1v.25h-.17v-.1zm.06-5.81h.08l-.1.1zm.22 3.75l-.12.08v-.27zm-1.34-4.4h-.1v-.09zm-.18-.13v-.18h.08v.2l-.16.11zm-.08.76v-.17l-.24-.14.09-.15v.12l.17.18zm-.22.33h-.1v-.11h.12zm-.08 1.24l-.08-.08v-.04zm-.08-1.12l-.12.08v-.24zm-.03-.48v.17h-.09v-.21zm-.24 2.26v-.08l.08.08zm-.2.18l-.09-.09.16.13zm-.19-1.56v-.1h.01l.02.01h-.01zm.01-.1l-.18-.04.17-.07.12-.14v.22l-.08.04h.08v.02l-.09-.02h.01zm.16-.06v.07h-.05v-.04zm-.05-.19v-.07h.08zm-.19-1.1v.34h-.1v-.1zm-.2 1.1l.1-.15v.1zm.01.53v-.1l.12-.1.11.15zm.02-.46v.08l-.09.1zm-.12-.83h.28l.11.08h.17v.1l-.08.09-.18-.16v.13l-.1-.15h-.17zm.5.3h.15v.12zm-.05 0l.03-.03.02.02zm-.62-.13v.08l-.08.12v-.08zm0-.13l.12-.1v.02l-.12.21zm0 1.45v-.27l.09.08zm0-.27l-.04-.05h-.11v-.1h.15zm-.11 1.36l-.2-.2h.1l.13.15zM53.9 53h.22v.08h-.19zm7.52 3.9l-.22-.76-.15-.2-.38-.4-.25-.21-.23-.1-.26-.15-1.1-.32h-1.28l-.76-.14-.53-.24-.21-.19v-.74l.17-.18.21-.14.23-.12h1.4l.24.2.25.18.21.27.31.17h1.6l.28-.19.11-.22v-.5l-.4-.69-.31-.39-.95-.6-.8-.25-.55-.11h-1.1l-.32.08h-.6l-.54.16-.49.26-.68.43-.5.62-.26.73v1.05l.03.48.23.47.53.6.97.49.51.15 2.23.24.57.2.32.2.08.33-.11.32-.19.2-.48.2h-1.43l-.25-.12-.24-.14-.47-.48-.29-.1h-1.62l-.26.1-.12.28v.52l.06.12.27.49.2.17.19.2.5.29.2.2.27.11.29.08.55.19.59.09h1.98l.29-.1h.26l.27-.13.96-.52.41-.4.14-.18.16-.29.09-.24.08-.22.09-.66z"/><path id="rrrpf" d="M70.22 54.14h-.14v-.11h.16v.07h.09zm-.18.32h.08v.07zm-.17-.04l.09-.15-.02-.03.02-.01v.08zm.07-.18l-.07.08v-.23zm-.1.45h-.12l-.1-.08-.07-.09h.32zm.16.15l-.07.06h-.18V55h-.27v-.26l.01.02h.1v.08h.1v.07zm-.6-.2l.08.08v.01zm.63.17h.1l-.13.03zm-.95-.6h-.14v-.12h.14zm-.26 2.29h-.11v-.1h.25zm.25 1.08v.08h-.11v-.07zm-.28-2.49h-.08v-.07h.25v.1zm-.1 3.8v-.07h.09zm-.03-.15l.13-.07h.08zm.05-4.4v.03l.26.14.11.07.1.08v-.09h.02v.1h-.13v-.09l-.39.1h-.08l.06-.15h-.1v-.07h-.11v.07l.08.14v.04l-.05.04v.02h.05v.16h.06v.02l-.14.08v.07l-.11.1h-.1l-.08-.07h-.1l.09.08h-.17l-.08-.08h.11v-.1h-.34l-.08-.1v-.07h-.13v-.07h.09v-.1h.1v-.08l-.08-.13.09-.09v-.11h.1v-.1h.37l-.04.04v.15l.1.13h.1v-.28l-.04-.04h.65v.02l.14.08v.01h-.33v-.07h-.1zm0 4.95h-.1v-.04h.11zm.01.38h-.08v.07h.02zm-.13-1.75h.07v.07zm.1-2.23v-.12h.12zm0-.12h-.08l.09-.09zm-.13-.8h.03v.06l-.03-.04zm.08.16h-.05v-.1zm-.34 2.96v-.07h.08zm.03-3.71l-.09-.17h.09v.13h.1zm.04 2.27h.12l.08-.12v.17l-.13.13-.11.12v-.28h-.09zm-.29-1.74h.1v-.07zm.1-.58l.07.05h-.12zm-.1 4.85H68v-.09zm.27-1.97h.09v.1h-.39v-.08h.11zm-.32-1.53l.05-.22v.08zm-.14 3.76h-.08v-.08zm-.06-1.88h.14v.22l-.08-.08v-.13zm.04.53h.1v.05h-.08zm-.1.26h.1v.1h-.1zm.15-3.7h-.06l.03.03zm-.06 0l-.07-.1v.1zm-.18 3.15h.14l.12.14.11.08h-.24v-.1h-.09zm.18-1.28h.1v.1l-.14.1v.02h-.1v-.1zm-.14 3.17v.13h-.1zm-.1-3.28v-.08h.1zm.23-.65h-.13v-.08h.1zm-.26 2.46V58l-.09-.1h.18v.1zm.38-1.1l-.08.07h-.15v-.15zm-.34.19v-.08h.07zm.07-.08l.04-.04v.04zm.16-2.99h-.12v-.09h.19zm1.1 5.72l-.15.08v.02l.17-.05.1-.26v-4.04l.08-.27.18-.1h1.1l.16-.1.11-.19v-.84l-.15-.19-.18-.11h-4.41l-.15.1-.11.2v.9l.08.14.18.1h1.2l.17.08v4.39l.14.19.27.08h.62l-.07-.05v-.1l-.08-.16v-.44l.08.1v.13l.1.11h.08v-.08h-.11v-.1h.08l-.1-.02.09-.07h.01v-.03h.01v.03h.06v.07zm-.15.32h-.4v-.16l-.04-.03h.34l.1-.03zm-.44-.9l-.13-.07v-.07l.11.08h.1v.06zm.2-4.5h.03l-.04.1h-.03v-.07zm.5-.39l.1.08v.08l.07.06h-.1l-.1-.1v-.12zm.17.22h.02v-.33h.18v.33h-.07l-.11.09v-.08zm-2.28-.22v-.07l.1.15h.12v.04h-.14zm-.04.05h-.09v-.14H66.92zm-.09-.14l-.07.07h-.2v-.12h.22v-.1l.14-.1-.03.2-.04.04h-.02zm-.56.28h.08l.09.1z"/><path id="rrrpg" d="M80.45 55.97v-.08h.08zm-1.64-1.8v.32h-.08v-.1zm.05-.08h-.23V54zm-.38-.16h.1v.08h-.08zm.1 1v.08zm-.43-.29h-.05l-.03.02-.07.06v.12h-.08v-.03h.02v-.1h-.18l-.1-.08.01.16h-.26l-.15.15h-.37l.22-.13h-.13l-.08-.06h-.03v-.1h-.16v-.21h.05l.07.06v-.06h.21l.1-.1.1.06v.06l.02-.01.1-.1h-.11v-.08l.2-.08h.06l.03.03h-.05v.09l.08-.02v-.03l.03.03v-.07h.12v.13h.34l.12.1.01.03h.05v.07l-.01.02.03.06v.01h-.07v-.03zm.04.04h-.08l.04-.04h.04zm-.17-.52l-.1-.09h.1zm-.17 0h-.1v-.07h.1zm.24 5.16h-.24v-.08h.2zm-.42-4.5v-.03h.22v-.03h.03v.05zm-.1-.98h.01v.1zm-.17 4.93v-.1h.18v.1zm.21-3.68h-.12v-.1zm-.04-.87v.04l-.03-.04zm.07 4.92v-.07l.05-.06v.02zm.05-.18h.04l-.04.05zm.04 0v-.08h.07v.08zm-.1.22h-.01l.02-.04zm-.01 0l-.04.06-.06.08v-.14zm-.1.18h.05l-.05.13zm-.03 0l.03-.04v.04zm.1.32h-.13v-.1h.12zm-.26-4.9h.07v-.16l-.07-.13zm-.1-.42h.02v.05h-.01zm-.4.39h.04v.04h-.05zm-.02.13v-.01h.08v.07zm-.07-.47l.03-.08.06-.06v.17h-.07zm.09-.23v.09h-.04zm-.08 4.63v.05h.04l-.04.03h.08zm0 .08v-.03h-.1l-.06-.06v.29h.12l-.1-.1.14-.1zm.08-3.52v.1h-.08v-.19zm0-1.1zm-.04 0l-.02.06-.02.02v-.08zm-.2 1.11h.1v.08h-.1zm3.36 1.84l-.08.37-.1.13-.08.13-.1.16-.29.22-.15.08-.14.07h-1.18l-.3-.15-.3-.25-.08-.13-.12-.13-.17-.5v-1.26l.1-.13.08-.16.12-.14.13-.12.26-.18.15-.08h1.03l.48.2.29.22.2.3.08.16v.73zm-3.36 1.57v.01zm.23-.85v.12l-.08.2-.02.03v-.05l-.09-.08v-.14h-.07v-.13h.05v.05zm-.08.33l.06-.07h.05l-.1.12.08.1v.08l.07-.08v.29l.13.08h.1v.11h-.1v.1l-.08.07v.08h.1l.14-.13h.15v.2l-.24.14-.52.22v-.1l-.14-.17h-.25l.03.02.12.13.6.33.17.07.76.23h.54l.8-.08.33-.1.8-.37.63-.61.11-.16.35-.62v-1.32l-.13-.5-.08-.33-.07-.2v-.2l-.17-.3v-.17l-.12-.16-.1-.1-.12-.16-.38-.35-.45-.29-1.17-.36h-1.42l-.15.08-.33.09-.45.28-.13.1-.29.19-.24.27-.3.46-.09.15-.16.5-.08.39v1.05l.32.57.13.31v.1h.22v.07h.15v-.1l-.07-.23.11-.13.08-.07h-.18v-.08h.11l.13-.1h.2v-.15l.06-.1h.02v-.01h.1v.15l-.1.16.48.15-.1.1v-.02h-.05v-.08h-.13l.08.1v.07h-.08l.08-.03h-.25v.11l.17-.08-.1.17h-.1v.18h.07v-.13h.18v-.08h.08v.13h.07v.08l.04-.04v.03zm-.76 1.04v-.21l.21.2zm0-.22l-.04-.04.02.04h.02zm-.1-.1l-.05-.08.11.14zm-.08-.16h-.02l.05.08zm-.1 0v-.1l.08.1zm0-.21l-.12-.06.13.17zm-.16-.08v-.04l.04.06zm0-.12l-.06-.03.06.11zm-.1-.05v-.13h.01v.1l.03.05zm1.28.2h.08v-.07h-.08zm0-.07v-.18l-.01.04v.14zm-.13-3.71h.1v.08h-.08zm-.16 2.87v-.16h.1l.08.1v.1zm-.03-1.74v-.1h.1v.1zm-.11 2.67l.14.05.07-.13zm.1.24h-.08v.3l.1-.12.1-.13h-.08zm-.08-.77l-.02.01h.02zm.05-2.84h.13v.12zm-.07-.55h.23l-.23-.2h.25v.1h.08v.09h.09v.02h-.16v.13zm.53.12v.08h-.11v-.08zm.92-.15h-.02zm-.1 0h-.09l.1.08zm.62.12h.07v.1h-.07zm-1.97 2l.14-.13v.29h.07v.07h-.09v-.15zm0-.58v-.12h.29v.26h-.33zm.03 1.3h-.07v.11zm-.16-.12v-.08h.09l.03.07h-.02zm.13-.24v-.07h.15zm-.26-.36h-.08v-.12zm-.18 1.25v.1l.1-.1zm.02-.8v-.07h.02l.07.08v.2zm.1 1.43h-.13v.08h.12zm-.28-2.03v.11h-.07zm.03.53v.08h-.1zm-.03.3h.1v.07h-.1zm-.18-1.98v.1h-.07zm.16 2.42h-.12l-.09-.1v-.07h.13l.08.08zm.8.1h.01zm-1.08-.93h.09v.06h-.1zm-.08.1l.02-.04v.01zm.02-.04v-.18l.08.08z"/><path id="rrrph" d="M90.47 54.7h.2v.08h-.12zm.16 3.29h-.18l.06-.04h-.08v-.04h.12zm-.18 0l-.1.06v.13h-.34v.07h.08l.05.06h-.1l-.06.04h-.27v.08h.11v.05l.19.04v-.1h.44v.08h.07v.02l-.1.08h-.07v.08h.12v.27h-.5l-.08-.15h-.17v-.08h-.33v-.1h-.08v-.07h-.05v-.08h-.1l-.07-.1v-.23l.07.07h.1v.1h.36v-.08h-.14l.1-.08.16-.12.14.1h.04v-.08h-.07v-.09l.42-.08.13.07h.03V58zm-.06-2.85h-.08v-.02zm-.12.9l-.16-.08h.08zm.04 2.86v-.13l-.13.09zm-.02.28h.08v.11h-.19v-.1h.08zm0-3.65h-.02l.02-.01zm0-.01v-.16l.08.1zm-.2 3.96h.08v-.08h.16l-.16.12zm.02-4.74l-.24.07h.08l-.09.09v-.23l-.15-.09h-.05l.01-.02h.26v-.1l.13-.1h.03v-.02l.01-.01v-.01h.13v-.1h-.13v-.06h.08v-.07h.25l.16.1v.43h-.25l-.08.05h-.17zm.26-.07v.08h-.26v-.01l.07-.02.08-.05zm-.23 1.44h.1v.21l.07.08h.15v.07h-.21zm-.1-1.77v-.02h.05v.02l-.03.01h-.04zm.05-.13h.01v.1h-.01zm-.31-.27h.13v.15h-.1zm.19 4.64l-.2.22h.14l.12-.13zm-.15-.2h.12l.04-.03h.16v.06H90v.02h-.19zm.32-.07zm-.2-1.48l-.08-.08h.1v.08zm.24 0l.1-.08h.36v.13h-.62l.12-.05zm-.5-1.68h-.02v-.1h.1zm.11 1.27l.1.08h-.22l-.08-.08zm-.33-.51h-.03v-.1zm.08 1.6h.15v.1l-.15.08h-.1v-.1zm-.07-.75h-.12l.08-.07zm-.04-.2h-.17v-.1h.13zm-.28-.93l.1-.01h.09zm.38-1.07v-.15l.17.07-.03.08zm0-.15l-.06-.02v-.16h-.1v-.08h.13v.15h.13l-.1.1zm-.56 2.42v.1h-.06zm.16 1.08h-.27v-.07h.25zm.05 0V58h-.03l-.02-.08zm0 .08h.08v.15h-.19v-.11h.1zm-.37-.38h.3v.1zm1.77 1.78l-.11-.18v-.26h.05v-.18h.08zm-.44-1.04v-.04l.03.04zm.4.15h.04l-.06.05v-.03zm-.02.05v.03h-.04zm-2.04-.35h.23l-.1.08h-.13zm1.8-1.02h-.18v-.02h.32l-.03.01zm-.18-.02h-.03v.08h.2l.12-.07-.08.13h-.13l-.08.1h-.12l-.19.07-.09-.12v-.08l-.13-.08-.28-.1h.02l-.08-.07h.08l.1-.1h.18l.23.1h.13l-.08-.1.12.1.08.07v.02h.03zm-.92-.14v-.1h.04v.07h-.01l.02.03zm-.07-.03h-.13v-.07h.13zm.15.1l.1.08h-.23v-.1h.09l.07.02zm-1.08.74h.17v.07l-.1.08zm-.03.37l.1-.08h.13l-.14.12zm-.05-.48h.28v.08zm-.1-.3h-.1v-.14h.12v.1zM87.2 56h-.01v-.16zm-.3-.12v.09h-.09zm.42.5h-.25l.08-.08.1-.1v.07zm-.5.59h-.09l.1-.13zm-.24-.37h-.07l.1-.07h.1zm-.37 2.27h-.07v-.09zm-.07 0l.03.03h.08v-.08h.42v.1l-.16.17v.19l.06.05h.15l-.12.15h-.24l-.12-.08h-.16l-.1.1.12.08H86v.1h-.35l-.08-.16h-.16v.19h-.07v-.2l-.08-.1.6-.2v.12l.08.07v-.15h.1v-.04h-.16v-.1l.16-.07h.13l-.1-.13v-.1l.06.06zm.25-.49h-.18v-.07zm-.43.38l-.08-.07-.02-.02h.04l-.02.01h.1zm-.06-.09l.06-.05h.08l.12-.01h.1v.07h-.28zm.28.73l.14.16h-.15v-.12h-.1v-.04zm0 .16v.05h-.05v-.05zm-.05.14H86v-.02H86v-.07h.12zm-.3-3.41l.09.07h-.19zm.03 2.4v.07h-.17v-.05l.08-.09v-.08l.08-.07v.24zm-.17.07h-.01v.1h.1v.08h-.12l-.08-.08h.11zm.17-.08h.02l-.02.02zm.54.56l-.08-.14v.1h-.14l-.2.11h.2zm-1.18.05v-.09h.08zM85 57.88h.16l.04.04v.02h-.04zm.21.06h-.01v1.98l.08.16h1.35l.19-.08.09-.28v-2.55h.12l.12.15.65.6.12.12.12.1 1.45 1.31.24.26.13.11.25.14h.46l.1-.18v-3.34l.04-.98V54l-.09-.18-.19-.1H89.3l-.18.1-.1.19v2.61h-.14l-.65-.62-.27-.18-1.83-1.75-.13-.1-.22-.1h-.28l-.21.09-.08.16v3.81zm.12 0v.1h.08v.04h-.14V58l-.06-.06zm.08.14h.08v-.13l.11.1v.08h-.13v.05l-.06-.03zm.16.15h-.1v-.05z"/><path id="rrrpi" d="M101.15 51.42h.1v.12h-.09zm-.06 3.25l.13-.08v.08l-.1.1h-.09zm-.13.27h.04v-.1l.26.15-.27.22h-.12zm.24-2.63h-.1zm-.33 2.96l.13.15v.17zm0-3.47l.25-.09h.08l-.11.1h-.22zm-.01 4v-.09h.29v.08zm-.1-3.64h.06v.08zm-.02-.73h.12l-.13.1h-.13v-.07zm.09 3.14v.1l-.22.07h-.01zm-.43 1.1v-.07l.2-.1zm-.06-4.01v-.12l.17.31-.1.24h-.11V52l.11-.1v-.07l-.14.14-.13.15v-.38h.09v.08zm-.52 2.99h.1v-.1h.09v.11h-.1l.14.1v.1zm.6-2.2h-.1v.1l-.15.08-.15-.1-.1-.14.12-.09h.36zm-.55.29l-.13.09-.22-.1v-.14h.02v.04h.1l.11.1.15-.11zm-.33-.15v-.09l-.16-.12v-.08l-.12-.09h-.54v.1l.22.15h-.14l-.13.13v.27h-.14l-.15-.18v-.14l-.14-.1v-.11h-.16v-.4L98 51.8l-.19.07v.27l.04.06h-.11l-.09.09h-.02l.05-.08h-.13l-.03.08h-.14l-.3-.18v-.04h-.58l.1-.12v-.08h.16l.1-.16.07.04v-.17h-.17v.08l.1.05h-.17l-.12.1v.1h-.27l-.09-.1v-.23h-.13v.08l-.04-.06.16-.31.1-.21h.2v.08l.19.14.17-.08h.46v.02h.49l.24-.08.18.08h.08v.15h-.13l.1.1.26-.21h.42l.13.2v.11h.13v-.2l.09-.1h.12v.17l.1-.08h.12v.15l-.01-.02h-.09l-.13.08v-.05l-.22.06.15.15h-.17v.13l.2-.01v-.12h.14v-.04l-.02-.02.1-.06v.16l.17.14v-.29l-.08-.07h.26v.07l-.1.24-.08.1v.25l-.16-.09h-.16l.09.08v.1l.08.07h.06v-.15h.09l-.08.15h.06v.12l-.1.11-.03-.03zm-.1 1.8l.11.11h-.12zm0 .78h-.24v-.07h.1zm-.15 0v.07h-.43l.04-.21h.26v.13h.04v.01zm.43.1h-.08v-.1h.14v.11l-.2.2v.2h-.16l-.2-.19h.21zm-.52.22v-.01l.02.01zm0-.01l-.08-.08h.08zm.09-.48v.1l-.11-.1zm-.26-2.24h-.1v-.15h.08l.04.06zm-.02-.15l-.04-.06v-.07l.1.06.12.13v-.12l-.1-.1.1-.08v.1h.16l-.09.07v.14h-.2l-.01-.01.01-.06zm.02-1.07v-.12h-.17v.15zm-.34 7.24h.13v.11h-.1zm.15-.36h.19l-.13.14h-.18zm-.17-3.46V55h-.08v-.12zm.02-2.9v-.11h-.15v.15zm.37 6.84l-.27.26v-.15l.21-.16.13.1zm-.27.28h-.02l.02-.02zm-.02 0l-.03.03-.08.09h-.15v-.12zm-.5-7.38l-.09-.13v-.13h-.08l.05.17zm.01.02h.01l-.02-.02zm.01 0l.12.09v-.1zm-.06 3.32l.1-.18v.24h.17v.08h-.09l-.18.18-.18.2.09-.18v-.21l-.19-.17h.2zm-.35-2.63l-.07-.09v-.1h.14l.02.02.11.02v.07l.12.12v.39h-.1v-.08H98l.06-.23h-.15v-.08h.1l-.09-.09zm-.04.04l.04-.04.03.03v.01zm.44 3.65h-.46v-.14H98l.14.04h.09l.11-.1zm-.31-2.51h-.12v-.16zm-.1 4.51v.04l-.06-.08v-.11H98v.15zm.03.07v.08l-.02-.1zm-.3-5.93h-.1l.02-.05h.1zm-.14.8v-.13h.1zm-.1 3.25l.22.09v.29l-.13-.1.1-.18zm0 .81h.23v.12h-.13zm-.01.4h.13v.1l-.13.07zm-.1-5.42h.34v-.09l-.13-.18-.11.1zm-.1 4.77l.03.04-.09.15-.1-.08v-.1l-.07.02v-.17h.13l.1.14zm.2-.09l.34.3h-.31v-.13h-.12l-.11-.08zm.11-1.63h.13l.1.16-.18.13-.12.17h-.08l.1-.24h-.15l-.1.23v-.44h.09l.1-.1zm-.24-.46v-.1h.13zm.14-.95h-.08l.08-.1h.15zm.12 4.92h.1l.13-.11v.25l.09.1.2.1h.03v.17h-.22v.1l-.12.1h-.01l-.11-.1h-.16v.1h-.18l-.28.09h-.22l.04-.1h-.21l.07.1h-.17v-.21l.1-.12.13-.24h-.07v-.1l-.09.03-.09.15v.22h-.14v.03h-.14v-.27l.11-.15-.1-.08h-.13l.13-.08v-.21l.09-.08h-.12v-.17l.12-.13h.01v-.15h.29l-.12-.1v-.12h.12v.2l.19.17.23-.22h.07l-.06.04-.14.18.3.35-.1.1h.14v.39l.12.17h.14v-.15l-.1-.11h.09l.08.11.1-.09zm-.32-.27l.15.12h.13v.08l-.05-.07v.2l-.14-.2-.1-.12zm.28.2l.03.06-.03-.04zm-.26-1.2v-.17l-.09-.14h.1l.17.1-.1.18zm.03-4.54v-.07h.25v.13zm-.1-.92h.1v-.1zm-.02-.44h-.01v.11zm.17-.07h-.16v.07zm.09 4.71h-.22l.12-.08.1-.13h-.06l.29-.15-.19.24v.15zm-.2-.14l-.05.06-.15.08v-.09h.1zm.05-.07h.09l-.14.07zm-.1-2.68h-.11v-.12zm-.1 1.14l-.13.08v-.22H97zm-.33 2.7h.09v.08zm.2 1.16h-.1v.13l-.1-.07v.11l.22.11zm-.11-4.77h.1v.1h-.09v-.08zm.04 1.53v.08h.15v.1h-.18zm.28.49l-.08.07v-.02zm-.08.07v.05l-.02.02v-.05zm-.02.17l-.1.08-.03-.07.13-.1zm-.13 0l-.02.02-.13.14-.06-.04h.06v-.39h.1v.19zm-.23.12l-.12-.08.14.08zm-.06 1.63h.13v-.08l.16.1v.02zm.24 1.88h.23v-.05zm-.11.17l-.06-.07h.1zm-.13-7.18h.23l.1.11zm0 4.56h-.1l.1-.18h.14zm-.03-1.16l-.09-.08h.12zm.14.66v.12h-.11v-.06l.02-.04zm-.11.06l-.04.1-.05.1-.03-.02v-.21l.15-.17h.13l-.1.08-.04.08h-.02zm.17-4.9v-.15l-.21-.2h-.1v.12l.14.12zm-.32 4.4l.04.06h-.08v-.04zm.1.06v.08l-.06-.08zm-.1 3.27h-.11v-.08h.16v.03zm.3-.56h-.1v.04zm0 .15v.29l.14-.2h.02v-.21h-.14v.12zm0-.01h-.02.01zm-.63-7.26v-.04l.06.06.07.09v.04zm.2 5.24h.1v.23l-.18.17h-.12v-.12zm.28-.14h-.13l.04-.06zm-.13 0l-.04.1v-.1zm-.23-4.5v.08h-.02zm-.13 3.9l.11.1v.13h-.08l.08-.1zm.8-4.49h-.01zm1.08.49v.12l-.1-.12zm1.02.26v.02l-.03-.02zm.81-.22h-.01v-.01zm-.13-.67v-.04l.04.04zm-.22.15v-.1l.07.07zm-3.23.24h.14v.1h.13v.14h-.08l-.1-.1-.12.08h-.13zm.03 5.89v-.08h.04v.1h-.14l-.09-.14zm2.03 1.38l.05-.05h.12v.16zm.17-.17l.08.12h-.08zm-.23.24l-.19.13v-.13l.23-.08.02.01zm-.19.13v.05H98v-.04zm-.01.1h-.09l-.34-.09h.1l.04.03h.13v.01H98zm-.52-.79zm-.27-.92v.1h-.16zm-.95.6l.03-.02h.15v-.09h-.1zm5.75-.3l-.3-.11h-3l-.31-.13-.12-.24v-.83l.18-.34.26-.15h2.64l.29-.1.1-.27v-1.17l-.14-.37-.33-.17h-2.6l-.3-.12-.11-.4v-.42l.13-.25.32-.1h2.84l.3-.16.15-.24v-1.31l-.13-.25-.29-.11h-5.42l-.3.1-.16.28v8.3l.12.36.43.17h5.42l.3-.12.16-.28v-1.31z"/><path id="rrrpj" d="M65.99 72.82l-.83-1.93v1.93H65v-2.11h.24l.83 1.94.83-1.94h.24v2.13H67v-1.95l-.83 1.93z"/><path id="rrrpk" d="M69.43 71.65h1.12v.13h-1.12v.93h1.29v.12h-1.43v-2.12h1.29v.13h-1.21z"/><path id="rrrpl" d="M72.28 71.75v.94h.64c.13.02.26-.02.36-.1a.46.46 0 0 0 .13-.35.48.48 0 0 0-.13-.35.51.51 0 0 0-.38-.14zm0-.93v.8h.64c.17-.02.35.04.49.16a.6.6 0 0 1 .16.44.58.58 0 0 1-.18.46.69.69 0 0 1-.47.15h-.78v-2.12h1.23v.12z"/><path id="rrrpm" d="M75.83 71.65h1.13v.13h-1.13v.93h1.3v.12h-1.42v-2.12h1.31v.13h-1.2z"/><path id="rrrpn" d="M78.57 72.82v-.12h.09c.19-.01.35-.1.42-.25.13-.36.18-.74.15-1.11v-.63h1.48v2.13h-.18v-2.02h-1.11v.49c.03.4-.02.8-.15 1.18-.08.2-.32.34-.58.33h-.12z"/><path id="rrrpo" d="M82.26 71.75v.93h.61c.13.01.26-.03.37-.1.1-.1.14-.22.13-.35a.43.43 0 0 0-.14-.36.6.6 0 0 0-.4-.12zm0-1.04v.92h.61c.2-.02.38.04.53.16.11.12.17.28.17.44a.56.56 0 0 1-.17.45.71.71 0 0 1-.49.15h-.77v-2.12z"/><path id="rrrpp" d="M85.14 71.75v1.07H85v-2.11h.14v.93h1.15v-.93h.14v2.13h-.14v-1.07z"/><path id="rrrpq" d="M89.07 72.02h1.03l-.51-1.2zm0 .12l-.3.7h-.2l.96-2.13h.22l.96 2.13h-.19l-.3-.7z"/><path id="rrrpr" d="M92.76 70.84h-.63a.51.51 0 0 0-.4.13.48.48 0 0 0-.12.35c-.01.14.04.27.14.36a.6.6 0 0 0 .4.11h.61zm0 1.08h-.63l-.51.92h-.17l.53-.94a.6.6 0 0 1-.39-.16.66.66 0 0 1 0-.88c.15-.1.33-.16.5-.15h.77v2.13h-.14z"/><path id="rrrps" d="M66 76.38l-.85-1.92v1.92H65v-2.13h.25l.84 1.93.85-1.93h.2v2.11H67v-1.9l-.85 1.92z"/><path id="rrrpt" d="M69.03 75.56h1.02l-.52-1.2zm0 .12l-.3.7h-.16l.96-2.13h.22l.96 2.13h-.18l-.3-.7z"/><path id="rrrpu" d="M73.39 76.16h.18a1 1 0 0 1-.33.69.92.92 0 0 1-.7.23.96.96 0 0 1-.83-.4c-.19-.28-.29-.62-.28-.97a1.8 1.8 0 0 1 .28-1.06c.2-.27.52-.42.85-.4.26-.02.51.07.71.25.17.15.26.37.27.6h-.18c0-.2-.1-.38-.25-.5a.85.85 0 0 0-.57-.2.82.82 0 0 0-.7.36 1.6 1.6 0 0 0-.24.95c-.02.32.07.63.25.88a.9.9 0 0 0 1.27.13.85.85 0 0 0 .27-.56z"/><path id="rrrpv" d="M75.64 74.38H75v-.13h1.43v.13h-.66v2h-.13z"/><path id="rrrpw" d="M77.97 75.2h1.18v.13h-1.18v.92h1.32v.13h-1.43v-2.13h1.43v.13h-1.27z"/><path id="rrrpx" d="M80.14 74.38v.92h.58c.14.01.29-.03.4-.11.11-.1.16-.25.13-.4a.43.43 0 0 0-.14-.33.65.65 0 0 0-.4-.11zm-.14-.13h.76c.18-.01.35.04.5.14.12.11.18.27.17.43a.6.6 0 0 1-.17.46.76.76 0 0 1-.54.17h-.58v.92H80z"/><path id="rrrpy" d="M84.1 76.16h.18a1 1 0 0 1-.33.69.92.92 0 0 1-.7.23.96.96 0 0 1-.83-.4c-.19-.28-.29-.62-.28-.97a1.8 1.8 0 0 1 .28-1.06c.2-.27.52-.42.85-.4.26-.02.51.07.71.25.17.15.26.37.27.6h-.18c0-.2-.1-.38-.25-.5a.85.85 0 0 0-.57-.2.82.82 0 0 0-.7.36 1.6 1.6 0 0 0-.24.95c-.02.32.07.63.25.88a.9.9 0 0 0 1.24.16.84.84 0 0 0 .3-.59z"/><path id="rrrpz" d="M85.82 75.44l1.08-1.18h.18l-.8.86.86 1.25h-.16l-.78-1.15-.36.4v.75h-.13v-2.12h.13z"/><path id="rrrpA" d="M89.11 75.56h1.15l-.53-1.2zm0 .12l-.3.7h-.24l.96-2.13h.22l.96 2.13h-.18l-.3-.7z"/><path id="rrrpB" d="M92.73 74.38h-.64a.5.5 0 0 0-.38.13.48.48 0 0 0-.13.35c-.01.14.03.27.13.36a.6.6 0 0 0 .4.11h.6zm0 1.08h-.64l-.5.91h-.16l.52-.93a.6.6 0 0 1-.37-.16.57.57 0 0 1-.15-.42.55.55 0 0 1 .19-.46c.14-.1.31-.16.49-.15h.75v2.12h-.13z"/><path id="rrrpC" d="M71.43 65.91v-.16h12.86v.16z"/><path id="rrrpD" d="M77.53 50.16H76.37l-.09-.08-.15-.11-.13-.13v-.08l-.29-.62V46.9l.11-.2V46.4l.09-.08.08-.11.11-.13.14-.1h.19l.1-.08h.2v-.31l-.08-.08V44.21h.08v-.08l.09-.1h1.33l.1.08h.2V44l.12-.11.12-.1h.22v.27l-.12.14v.62l-.08.13H78.5l-.11-.14-.09-.14v-.11l-.08-.08-.12-.09h-.87V45.61l.1.08.09.09H78.08V46.07H76.9l-.2.1-.14.14-.14.1-.08.1v2.1l.11.18.09.1v.1l.28.24h.08l.11.08h2.41v-.08l.09-.1v-.08l.1-.21v-1.49l-.08-.12h-.66l-.15.08-.07.02v.32l.2.24.08.12v.11h-.53l-.08-.1h-.09V47.16l.11-.12.14-.08.21-.11h1.47l.27-.1.17-.08h.08l.1-.09h.08v-.88h-.65v-.74l.1-.11.18-.09h.85l.08.09v1.31l-.08.1v.08h-.11l-.09.09-.1.08h-.16l-.31.13-.11.1V49.06l-.09.08-.08.1-.28.21H77.54z"/><path id="rrrpE" d="M50.14 20.51a1 1 0 0 1 0 .26c.2.03.41.07.62.14.16.04.3.18.37.36s.07.38 0 .56h.16l.98-.44c1.4-.69 2.87-1.1 4.38-1.25.25 0 .48.2.55.48.07.3-.03.6-.25.76v.11c.48-.16.98-.24 1.47-.23.35 0 .7-.04 1.05-.11h.14c.1 0 .2.03.3.1a1.58 1.58 0 0 1 1.3-.07h.23c.51-.07 1.03.06 1.47.38h.95c1.26.1 2.52-.05 3.73-.44.1-.2.28-.3.47-.31.17.02.32.12.41.3L70 20.03l-.67.13c-.48.07-.94.21-1.38.4l-.18-.06a.52.52 0 0 1-.39-.17h-.08c-.28.08-.56.13-.85.14a.98.98 0 0 1-.6-.18A14.11 14.11 0 0 0 62 20c-1.57 0-3.13-.1-4.7-.3a.63.63 0 0 1-.53.28 2.38 2.38 0 0 1-.66-.15l-.52-.15a.56.56 0 0 1-.3.22h-.14a.52.52 0 0 1-.41-.2h-.09a1.6 1.6 0 0 1-.23-.33h-1.75c-.3-.03-.59.01-.87.13a.48.48 0 0 1-.24 0 .5.5 0 0 1-.5-.16l-.1-.18a.76.76 0 0 1-.3-.16c-.4.16-.45.44-.52.81a.72.72 0 0 1-.14.31c.07.12.12.25.14.4z"/><path id="rrrpF" d="M41.48 19.96c-.2.26-.48.43-.77.48V21.84c.07-.3.3-.51.55-.5h.14c.26.08.53.12.8.13.2 0 .38-.05.55-.14.15-.08.31-.08.45 0 .15.07.27.2.36.35h.1c.7-.15 1.4-.4 2.08-.72h.33l.34.14c.2-.29.45-.51.73-.66a.83.83 0 0 1 0-.53.92.92 0 0 1-.2-.17h-1.16c-.3-.04-.6-.04-.9 0-.17.25-.45.33-.69.18h-.1c-.15.01-.28.04-.42.09H41.6z"/><path id="rrrpG" d="M41.32 29.4c-.09.55-.19 1.17-.24 1.76.1.08.17.18.19.3.05.93-.13 1.86-.54 2.73-.21.5-.36 1.01-.46 1.54v.06c-.02.1-.08.2-.15.28.46.28.49.94.49 1.36.02.09.02.17 0 .25a.85.85 0 0 1-.5.4c-.1.08-.1.08-.1.26v.1c-.02.54.02 1.08.1 1.62.18 1.15.25 2.3.23 3.46.22.28.34.6.34.93 0 .7-.05 1.39-.16 2.08a8.3 8.3 0 0 0 0 3.23c.03.09.03.18 0 .27-.02.1-.05.2-.1.3 0 .34 0 .78.09 1.23.02.96.13 1.92.32 2.87.07.18.02.38-.12.52a9.52 9.52 0 0 0-.13 3.72c.15 2.06.16 2.85-.24 3.27v3.3c0 .1-.03.19-.09.27a9.44 9.44 0 0 0 .36 3.33v.19a1 1 0 0 1-.24.58c-.2 1.93-.11 3.87.29 5.78a.5.5 0 0 1-.17.45l-.12.1c0 .38 0 .96-.1 1.92-.18 1.75-.24 3.5-.17 5.25l.15-.12c.13-.1.3-.15.48-.15h.08c.2.02.38.11.5.25l.3.36.08-.34c.05-.26.13-.52.25-.76.01-.75-.04-1.5-.13-2.23a18.32 18.32 0 0 1-.12-3.4 3.9 3.9 0 0 1-.12-.8c0-.6 0-1.14.1-1.67a19.56 19.56 0 0 0 0-4.55l.24-.67c-.44-.22-.47-.86-.5-1.74-.04-.88 0-1.45.3-1.7l.17-.1a12.4 12.4 0 0 1-.19-4.8c.04-.2.2-.37.44-.44v-.52c.04-.87-.02-1.74-.17-2.6-.2-.13-.3-.33-.27-.54l.19-1a.5.5 0 0 1 .12-.24 1.87 1.87 0 0 0-.2-.64 4.51 4.51 0 0 1-.36-2.38c-.01-.47.08-.93.25-1.37l-.15-1.38c0-.22.04-.44.15-.64v-2.22c-.13-.52-.32-1.37-.37-1.74a.45.45 0 0 1 0-.16c.02-.13.06-.26.12-.38l-.17-.95a.46.46 0 0 1 0-.2c.05-.25.25-.46.54-.56v-.92a1.9 1.9 0 0 1-.12-1.54v-.39c.1-.66.1-1.32 0-1.98a.49.49 0 0 1 .15-.44c.03-.4.03-.8 0-1.2v-.5c0-.17.1-.34.27-.45-.03-.2-.1-.4-.18-.58-.1-.22-.17-.45-.22-.67v-.13c-.02-.6.1-1.2.35-1.76-.25-.43-.35-.9-.28-1.37.15-1.7.12-3.42-.09-5.13v-.38-.1c.02-.24.09-.48.2-.7l-.2-.54v-.14a.86.86 0 0 1 0-.35c-.08-.22-.2-.5-.27-1.25-.06-.12-.1-.25-.1-.38v.8c.03.08.03.18 0 .27-.13.69-.2 1.39-.17 2.09.07.62.07 1.25 0 1.87.54.36.39 1.22.17 2.53z"/><path id="rrrpH" d="M119.11 32.98c-.08.56-.19 1.17-.24 1.76.1.08.17.19.2.3.05.93-.14 1.86-.56 2.73-.22.5-.38 1.01-.47 1.53v.07c-.03.1-.08.2-.16.28.47.28.5.94.5 1.36.03.08.03.17 0 .25a.88.88 0 0 1-.52.4v.39c0 .54.03 1.09.12 1.63.18 1.14.25 2.3.23 3.45.23.28.35.6.35.93 0 .7-.05 1.39-.16 2.08a8.05 8.05 0 0 0 0 3.22c.03.1.03.19 0 .28-.02.1-.06.2-.1.3 0 .34 0 .78.08 1.23.02.94.12 1.89.3 2.83.07.17.03.37-.12.52a9.23 9.23 0 0 0-.14 3.77c.15 2.05.17 2.84-.25 3.26v3.24c0 .1-.03.21-.1.3a9.16 9.16 0 0 0 .37 3.32v.2c-.02.2-.1.4-.25.57-.22 1.92-.12 3.86.3 5.76a.48.48 0 0 1-.18.45l-.12.1c0 .38 0 .97-.1 1.93a35.8 35.8 0 0 0-.18 5.24l.16-.12c.13-.1.3-.15.49-.15h.08c.21.02.4.11.51.25l.31.36.09-.36c.05-.27.14-.52.26-.77 0-.74-.04-1.49-.14-2.23a17.75 17.75 0 0 1-.12-3.39 3.8 3.8 0 0 1-.12-.8c0-.6 0-1.14.1-1.67a18.95 18.95 0 0 0 0-4.55l.25-.67c-.46-.22-.5-.86-.53-1.73-.03-.88 0-1.45.32-1.7l.17-.1c-.39-1.59-.46-3.2-.2-4.8.03-.2.2-.37.45-.44v-.52c.04-.87-.02-1.74-.18-2.6-.2-.12-.3-.33-.26-.53l.2-1a.5.5 0 0 1 .11-.24 1.83 1.83 0 0 0-.19-.64 4.38 4.38 0 0 1-.38-2.38c0-.47.08-.93.26-1.37l-.14-1.43c0-.2.05-.4.14-.58V50.3c-.14-.52-.33-1.37-.38-1.74a.44.44 0 0 1 0-.16c.02-.13.06-.26.12-.38l-.1-.95a.44.44 0 0 1 0-.2c.05-.25.26-.46.55-.56v-.92a1.86 1.86 0 0 1-.17-1.53v-.38a6 6 0 0 0 0-1.98.48.48 0 0 1 .15-.44c.03-.4.03-.8 0-1.2v-.5c0-.17.1-.34.28-.44-.03-.2-.1-.4-.19-.59-.1-.22-.17-.44-.23-.67v-.12c-.02-.66.12-1.3.42-1.92-.26-.42-.36-.9-.3-1.36.14-1.68.08-3.36-.15-5.03v-.38-.1c.01-.26.08-.51.2-.75l-.13-.5v-.13a.83.83 0 0 1 0-.35c-.24-.22-.37-.5-.42-1.25-.06-.12-.1-.25-.1-.38v.8c.03.08.03.18 0 .27-.12.69-.15 1.39-.1 2.09a7.7 7.7 0 0 1 0 1.87c.48.42.34 1.24.11 2.57z"/><path id="rrrpI" d="M118.47 86.26c-.28-.2-.54-.45-.77-.73h-.27a5.06 5.06 0 0 1-1.38-.27 5.47 5.47 0 0 0-1.46-.28c-.34 0-.68.08-.98.24a.53.53 0 0 1-.25 0h-.2l-.2-.08a6.45 6.45 0 0 1-1.56-.09h-.39c-1.32 0-2.64-.1-3.95-.26l-1.76-.18a.88.88 0 0 1-.33.56c-.21.18-.51.18-.72 0a6.46 6.46 0 0 0-2.38-.3c-.91.06-1.82-.06-2.69-.33a1 1 0 0 1-.77.25.73.73 0 0 1-.26 0 .54.54 0 0 1-.33.12c-.58 0-1.12-.27-1.48-.74h-.27a.56.56 0 0 1-.42.23h-5a30.9 30.9 0 0 0-3.61.17.56.56 0 0 1-.4.26c-.4.07-.82.1-1.23.1-.32 0-.64-.02-.96-.08-.4-.08-.8-.11-1.22-.1h-.59c-.48.13-.98.2-1.47.19h-.32a.57.57 0 0 1-.51-.4c-.1-.05-.2-.1-.29-.17-.78.12-.84.17-.96.26-.32.22-.66.4-1.01.54a.54.54 0 0 1-.57-.09c-.5.26-1.07.38-1.64.36a.56.56 0 0 1-.46-.27.64.64 0 0 1-.06-.56v-.13h-.56c-.38 0-.76.04-1.13.1v.08c-.18.82-1.77.87-2.09.87h-.5c-.4-.05-.78-.2-1.1-.43a3.7 3.7 0 0 0-2.1-.64.56.56 0 0 1-.3-.09H66.88a.57.57 0 0 1-.43.34c-.3.06-.58.14-.87.24-.63.24-1.3.37-1.97.38-.35 0-.7-.04-1.05-.11a.58.58 0 0 1-.42-.45h-.13a.6.6 0 0 1-.37-.5c-.24.01-.48.07-.7.18-.2.1-.44.06-.6-.09-.17.02-.33.02-.49 0a.56.56 0 0 1-.47-.3.57.57 0 0 1-.43.37c-.33.07-.67.1-1.02.1-.55.02-1.1-.16-1.54-.5a2.2 2.2 0 0 0-.58-.32.9.9 0 0 1-.47.27h-.27a8.6 8.6 0 0 1-1.38-.31.77.77 0 0 1-.6.48h-.23a.54.54 0 0 1-.31-.1.32.32 0 0 0-.16 0c-.12.02-.23.07-.34.13-.3.17-.62.28-.95.34h-.08a.57.57 0 0 1-.54-.43h-.1a.84.84 0 0 0-.32 0c-.22.4-.63.6-1.06.55-.24.02-.47.02-.71 0a.58.58 0 0 1-.49-.49l-.1-.11h-1.47a1.9 1.9 0 0 1-1.65.63h-.18a1.07 1.07 0 0 1-.48-.3h-.37a.57.57 0 0 1-.54-.4l-1.15.29h-.12a.6.6 0 0 1-.45-.55c-.09.12-.21.2-.35.24H40.66c-.2 0-.4-.1-.52-.27l-.14-.22V85.97h.4c.69 0 1.38.12 2.05.22.62.1 1.24.17 1.86.2.61 0 .97-.13 1.12-.36a.56.56 0 0 1 .36-.25h.29a.86.86 0 0 1 .36-.55c.02-.3.23-.53.5-.56h.23s1.82 0 1.9.94h.32c.5-.04 1 .07 1.46.3 2.23 0 4.42.15 6.56.28 1.5.09 2.93.18 4.35.22.02-.32.27-.56.57-.56H63.88c.16.06.31.15.43.28h.13c.1-.13.26-.2.42-.2h.07c.33.01.65.11.94.29.35-.12.73-.18 1.1-.16h.32c.16.02.32.07.47.13h.36a.6.6 0 0 1 .56.32h.18c.06-.2.21-.34.4-.4l.45-.08v-.14c.1-.18.29-.29.49-.29.1 0 .2.03.29.09 1.4.37 2.83.52 4.27.43h.85c.58-.05 1.15-.05 1.73 0 .75-.2 1.52-.29 2.3-.27h.41c.12-.26.43-.53 1.14-.53h.25c.16 0 .3.08.4.2.1.13.16.3.14.46.25.06.5.1.74.12.51.04 1.01.14 1.5.31.35-.08.7-.13 1.07-.13h.48a.57.57 0 0 1 .54-.43c.31 0 .62.13.84.37.05.07.1.16.12.25.46-.06.92-.08 1.38-.07.86 0 1.72.07 2.63.16.91.09 1.92.18 2.88.18a1 1 0 0 1 .65-.55H95a.53.53 0 0 1 .23 0l1.25.6c.23-.24.54-.37.86-.38h.09c.13-.1.29-.16.45-.18H98c1.53.2 3.06.28 4.6.26h5a31.7 31.7 0 0 1 6.32.51c.11-.06.23-.1.35-.12.01-.32.26-.57.56-.57h.13l2.06.49a3.4 3.4 0 0 1 1.56-.23z"/><path id="rrrpJ" d="M96.28 19.49H95c.8.19 1.57.48 2.3.88a.97.97 0 0 1 .3 1.33l.13.13h.13a.6.6 0 0 1 .4-.4H100a4 4 0 0 1 2.49-1.26c.25 0 .47.17.55.43.83 0 1.49.1 2.14.18.65.08 1.5.15 2.45.17.13 0 .25.04.35.12H108.22c.5-.52 1.11-.87 1.78-1.03h-.47c-.77 0-1.53-.1-2.28-.3-.47.07-.94.1-1.4.11h-.97a.57.57 0 0 1-.42-.27c-.34 0-.72 0-1.09-.08-.36-.07-.66 0-.9 0h-.24c-.1.07-.2.11-.32.1a.57.57 0 0 1-.47-.3c-.11-.1-.5-.3-1.67-.3h-2.92c-.09.24-.3.4-.54.4z"/><path id="rrrpK" d="M117.4 19.71h-.26c.1.12.17.26.22.42.09.27.09.57 0 .84.87 0 1.76 0 2.54.16.02-.1.05-.19.1-.27h-.14a1.1 1.1 0 0 1-.54-.28h-.35a.62.62 0 0 1-.56-.36l-.26-.02a1.57 1.57 0 0 1-.56-.49z"/><path id="rrrpL" d="M74 20.38c-.2-.01-.38.01-.56.07h-.18c-.2 0-.39-.11-.49-.28l-.63.32v.4h.17c.1 0 .2.02.28.07.32.2.66.36 1.02.47l.31.1c.28-.43.77-.7 1.3-.7.28 0 .51.22.54.5l.64-.3.18-.08h.19a.56.56 0 0 1 .48.89h.65c.11-.13.27-.2.44-.2h.3c.5 0 .99-.17 1.4-.47.69-.5 1.54-.74 2.4-.68h.15c.22 0 .42.13.51.34.09.2.05.44-.1.6.61-.57 1.28-1.07 2-1.48h-.34c-.37 0-.74-.04-1.1-.13-.18.02-.35.02-.53 0-.24 0-.49-.04-.72-.11-.45 0-.9.05-1.34.11h-.24a.58.58 0 0 1-.2.1c-.2.03-.4.09-.58.16a.58.58 0 0 1-.72-.18h-.74c-.26.01-.52-.05-.76-.18-.3.07-.6.12-.9.16-.49.03-.96.13-1.4.29a.58.58 0 0 1-.5.28.58.58 0 0 1-.36-.18z"/><path id="rrrpM" d="M90.91 19.89a14.4 14.4 0 0 0-1.72-.18c0 .18-.08.35-.21.46-.26.23-.66.51-1.12.84.5-.14 1-.22 1.52-.22h.5c.21.1.38.3.44.55.02.1.02.21 0 .32h.51c.24-.03.48.03.69.17.3-.11.64-.18.97-.19.3 0 .6.06.88.18h.1a4.97 4.97 0 0 1-.1-.88c-.01-.42.06-.84.2-1.23a.54.54 0 0 1-.26.18c-.27.07-.55.1-.82.1-.53 0-1.06-.03-1.58-.1z"/></defs><g><g transform="translate(-40 -19)"><g><use xlink:href="#rrrpa"/></g><g><use xlink:href="#rrrpb"/></g><g><use xlink:href="#rrrpc"/></g><g><use xlink:href="#rrrpd"/></g><g><use xlink:href="#rrrpe"/></g><g><use xlink:href="#rrrpf"/></g><g><use xlink:href="#rrrpg"/></g><g><use xlink:href="#rrrph"/></g><g><use xlink:href="#rrrpi"/></g><g><use xlink:href="#rrrpj"/></g><g><use xlink:href="#rrrpk"/></g><g><use xlink:href="#rrrpl"/></g><g><use xlink:href="#rrrpm"/></g><g><use xlink:href="#rrrpn"/></g><g><use xlink:href="#rrrpo"/></g><g><use xlink:href="#rrrpp"/></g><g><use xlink:href="#rrrpq"/></g><g><use xlink:href="#rrrpr"/></g><g><use xlink:href="#rrrps"/></g><g><use xlink:href="#rrrpt"/></g><g><use xlink:href="#rrrpu"/></g><g><use xlink:href="#rrrpv"/></g><g><use xlink:href="#rrrpw"/></g><g><use xlink:href="#rrrpx"/></g><g><use xlink:href="#rrrpy"/></g><g><use xlink:href="#rrrpz"/></g><g><use xlink:href="#rrrpA"/></g><g><use xlink:href="#rrrpB"/></g><g><use xlink:href="#rrrpC"/></g><g><use xlink:href="#rrrpD"/></g><g><use xlink:href="#rrrpE"/></g><g><use xlink:href="#rrrpF"/></g><g><use xlink:href="#rrrpG"/></g><g><use xlink:href="#rrrpH"/></g><g><use xlink:href="#rrrpI"/></g><g><use xlink:href="#rrrpJ"/></g><g><use xlink:href="#rrrpK"/></g><g><use xlink:href="#rrrpL"/></g><g><use xlink:href="#rrrpM"/></g></g></g></svg>